<svg width="145" height="146" viewBox="0 0 145 146" fill="none" xmlns="http://www.w3.org/2000/svg">
<g clip-path="url(#clip0_850_121)">
<path d="M85.4373 59.797H78.4629C74.9338 59.797 72.0697 62.6533 72.0697 66.1729V66.4597L71.9619 60.1854C71.9619 59.9703 71.7821 59.791 71.5604 59.791H65.5927C65.3769 59.791 65.1972 59.9643 65.1912 60.1854L64.9875 71.7421L61.7759 71.9333C61.5602 71.9452 61.3984 72.1185 61.3984 72.3336V76.5942C61.3984 76.8033 61.5662 76.9826 61.7759 76.9946L64.8916 77.1798L64.7238 86.89C64.7238 87.1111 64.9036 87.2964 65.1253 87.2964H72.0338C72.2555 87.2964 72.4352 87.1111 72.4352 86.89L72.3094 79.7552L80.5061 79.3071C80.7158 79.2951 80.8836 79.1218 80.8836 78.9067V75.1063C80.8836 74.8971 80.7158 74.7179 80.5061 74.7059L72.2135 74.2518L72.0937 67.4935H79.4515C82.9807 67.4935 85.8447 64.6372 85.8447 61.1176V60.1914C85.8447 59.9703 85.665 59.791 85.4433 59.791L85.4373 59.797Z" fill="#BCDFD8"/>
<path d="M110.781 59.797H103.807C100.278 59.797 97.4135 62.6533 97.4135 66.1729V66.4597L97.3056 60.1854C97.3056 59.9703 97.1259 59.791 96.9042 59.791H90.9364C90.7207 59.791 90.5409 59.9643 90.535 60.1854L90.3312 71.7421L87.1197 71.9333C86.904 71.9452 86.7422 72.1185 86.7422 72.3336V76.5942C86.7422 76.8033 86.9099 76.9826 87.1197 76.9946L90.2354 77.1798L90.0676 86.89C90.0676 87.1111 90.2414 87.2964 90.469 87.2964H97.3775C97.5992 87.2964 97.779 87.1111 97.779 86.89L97.6531 79.7552L105.85 79.3071C106.06 79.2951 106.227 79.1218 106.227 78.9067V75.1063C106.227 74.8971 106.06 74.7179 105.85 74.7059L97.5573 74.2518L97.4374 67.4935H104.795C108.324 67.4935 111.188 64.6372 111.188 61.1176V60.1914C111.188 59.9703 111.009 59.791 110.787 59.791L110.781 59.797Z" fill="#BCDFD8"/>
<path d="M60.0923 59.7969H53.118C49.5888 59.7969 46.7248 62.6532 46.7248 66.1728V66.4058L46.6169 60.1913C46.6169 59.9761 46.4312 59.8029 46.2155 59.8029H40.2417C40.026 59.8029 39.8463 59.9761 39.8463 60.1913L39.3789 86.8839C39.3789 87.111 39.5527 87.2903 39.7804 87.2903H46.6828C46.9105 87.2903 47.0903 87.105 47.0843 86.8839L46.8146 71.6762L46.7428 67.5053H54.1006C57.6357 67.5053 60.4998 64.649 60.4998 61.1294V60.2032C60.4998 59.9761 60.32 59.8029 60.0983 59.8029L60.0923 59.7969Z" fill="#BCDFD8"/>
<path d="M42.5721 23.108C42.638 23.2394 42.7399 23.335 42.8777 23.3888C43.0155 23.4426 43.1593 23.4366 43.3091 23.3649L45.8796 22.1459C46.0234 22.0742 46.1252 21.9666 46.1792 21.8232C46.2331 21.6738 46.2271 21.5364 46.1612 21.4049L44.0581 16.995L46.0893 16.027L50.4513 19.3195C50.5531 19.3972 50.6969 19.4748 50.8767 19.5465C51.0564 19.6183 51.2721 19.5884 51.5238 19.4689L54.1781 18.208C54.286 18.1543 54.3579 18.0706 54.4058 17.9391C54.4537 17.8136 54.4478 17.6941 54.3998 17.5866C54.3699 17.5208 54.3159 17.4551 54.238 17.3954L49.175 13.8041C49.7562 13.1169 50.1277 12.346 50.2655 11.4796C50.4033 10.6191 50.2535 9.71681 49.8042 8.77268C49.1151 7.3266 48.0905 6.4482 46.7304 6.12552C45.3703 5.80284 43.8304 6.05381 42.0988 6.87246L36.6763 9.44791C36.5325 9.51962 36.4306 9.6212 36.3827 9.75864C36.3347 9.89608 36.3467 10.0395 36.4126 10.1829L42.5781 23.102L42.5721 23.108ZM43.363 9.66303C44.0102 9.3523 44.5614 9.28657 45.0168 9.46584C45.4661 9.63913 45.8197 9.98571 46.0653 10.5056C46.311 11.0255 46.3529 11.5095 46.1852 11.9576C46.0174 12.4118 45.6219 12.7882 44.9988 13.081L42.7099 14.1686L41.0802 10.7506L43.375 9.66303H43.363Z" fill="#00A256"/>
<path d="M59.212 16.678C59.3319 16.7736 59.4697 16.8095 59.6314 16.7796L69.9971 15.214C70.1589 15.1901 70.2788 15.1184 70.3686 14.9929C70.4525 14.8674 70.4885 14.736 70.4645 14.5925L70.1529 12.5489C70.129 12.3876 70.0571 12.2681 69.9432 12.1784C69.8294 12.0948 69.6856 12.0589 69.5298 12.0828L62.3936 13.1584L61.9323 10.1348L68.4153 9.15482C68.5771 9.13092 68.6969 9.05921 68.7808 8.93373C68.8647 8.80824 68.9007 8.67678 68.8767 8.52739L68.5891 6.63315C68.5651 6.47181 68.4932 6.34632 68.3734 6.25669C68.2535 6.16108 68.1157 6.13121 67.954 6.15511L61.4709 7.13509L61.0275 4.19514L67.9899 3.14344C68.1517 3.11954 68.2715 3.04783 68.3614 2.92832C68.4453 2.81479 68.4812 2.67138 68.4573 2.51601L68.1457 0.472384C68.1217 0.311044 68.0498 0.191534 67.936 0.101901C67.8161 0.0182437 67.6783 -0.0176094 67.5226 0.00629266L57.3306 1.542C57.1688 1.5659 57.049 1.63761 56.9651 1.75115C56.8752 1.87066 56.8453 2.00809 56.8693 2.16346L59.0143 16.3075C59.0383 16.4509 59.1102 16.5704 59.224 16.6661L59.212 16.678Z" fill="#00A256"/>
<path d="M89.1752 11.5507L86.2273 11.1025C86.0355 11.0727 85.8857 11.0906 85.7599 11.1563C85.6401 11.2221 85.5322 11.3535 85.4423 11.5627C85.1368 12.2857 84.7293 12.7578 84.22 12.9789C83.7107 13.2 83.1176 13.2597 82.4525 13.1522C81.6556 13.0326 81.0564 12.71 80.6549 12.1961C80.2595 11.6822 80.1157 10.9054 80.2295 9.87159C80.3793 8.61673 80.5651 7.39772 80.7928 6.21457C80.9965 5.19275 81.362 4.49362 81.8952 4.12313C82.4285 3.75265 83.0936 3.62717 83.8965 3.74668C84.5676 3.84826 85.1068 4.07533 85.5202 4.42789C85.9337 4.78044 86.1853 5.35409 86.2692 6.15481C86.3052 6.38188 86.3711 6.5492 86.4609 6.63883C86.5508 6.73444 86.6886 6.79419 86.8804 6.82407L89.8283 7.27224C89.9601 7.29016 90.08 7.27224 90.1878 7.19455C90.2957 7.12285 90.3496 7.02126 90.3556 6.88383C90.4694 6.07116 90.3975 5.31226 90.1578 4.61313C89.9182 3.91399 89.5227 3.29254 88.9835 2.74279C88.4442 2.19304 87.7851 1.73292 87.0062 1.37439C86.2273 1.00989 85.3585 0.752938 84.3998 0.609526C83.0457 0.400382 81.8413 0.448187 80.7808 0.746963C79.7202 1.04574 78.8514 1.59549 78.1624 2.39621C77.4733 3.19693 77.006 4.22472 76.7543 5.47958C76.6405 6.10103 76.5386 6.75237 76.4308 7.43357C76.3289 8.11478 76.233 8.75417 76.1611 9.35172C76.0233 10.6544 76.1611 11.7778 76.5686 12.7339C76.982 13.6899 77.6471 14.4668 78.5638 15.0643C79.4866 15.6619 80.625 16.0682 81.9971 16.2774C82.9558 16.4208 83.8605 16.4387 84.7114 16.3252C85.5622 16.2116 86.3291 15.9726 87.0122 15.6081C87.6952 15.2436 88.2525 14.7655 88.6959 14.174C89.1333 13.5824 89.4268 12.8773 89.5647 12.0706C89.6006 11.9451 89.5766 11.8256 89.4987 11.724C89.4149 11.6224 89.313 11.5627 89.1812 11.5388L89.1752 11.5507Z" fill="#00A256"/>
<path d="M95.7777 19.9882L98.3841 21.1773C98.5279 21.243 98.6777 21.249 98.8215 21.1952C98.9713 21.1414 99.0731 21.0458 99.1331 20.9144L101.11 16.612L109.702 10.1763C109.732 10.1405 109.762 10.1106 109.78 10.0807C109.804 10.0509 109.822 10.015 109.84 9.97317C109.888 9.86561 109.894 9.75208 109.852 9.62659C109.81 9.50111 109.732 9.41147 109.613 9.3577L107.102 8.21039C106.904 8.12076 106.719 8.09686 106.563 8.14466C106.401 8.19247 106.281 8.24625 106.209 8.306L100.949 12.1483L100.451 5.67677C100.451 5.58116 100.415 5.45568 100.343 5.30031C100.277 5.14495 100.14 5.02544 99.942 4.93581L97.4314 3.78851C97.3116 3.73473 97.1858 3.72875 97.0599 3.77656C96.9341 3.82436 96.8442 3.90204 96.7963 4.0096C96.7783 4.05143 96.7663 4.08728 96.7663 4.12911C96.7663 4.16496 96.7603 4.21277 96.7543 4.2546L97.4793 14.9448L95.5021 19.2472C95.4422 19.3786 95.4362 19.5221 95.4901 19.6655C95.544 19.8089 95.6399 19.9164 95.7717 19.9762L95.7777 19.9882Z" fill="#00A256"/>
<path d="M107.828 23.5802C107.672 24.608 107.828 25.6179 108.295 26.6098C108.763 27.6017 109.518 28.5459 110.572 29.4422C111.315 30.0696 112.076 30.5596 112.861 30.9062C113.646 31.2528 114.425 31.456 115.192 31.5038C115.965 31.5516 116.69 31.438 117.379 31.1691C118.068 30.8943 118.685 30.4521 119.23 29.8366C119.326 29.747 119.368 29.6334 119.35 29.5079C119.338 29.3765 119.278 29.2689 119.176 29.1853L116.911 27.2552C116.768 27.1297 116.624 27.064 116.486 27.052C116.348 27.04 116.186 27.0998 116.001 27.2313C115.36 27.6854 114.76 27.8766 114.215 27.793C113.664 27.7093 113.131 27.4524 112.615 27.0161C111.998 26.4963 111.657 25.9107 111.591 25.2653C111.525 24.62 111.812 23.885 112.46 23.0663C113.244 22.0744 114.047 21.1362 114.862 20.2519C115.575 19.487 116.252 19.0866 116.905 19.0508C117.553 19.0149 118.188 19.2599 118.805 19.7798C119.32 20.216 119.662 20.694 119.829 21.2139C119.997 21.7338 119.901 22.3552 119.554 23.0783C119.464 23.2934 119.434 23.4667 119.464 23.5922C119.488 23.7177 119.578 23.8491 119.722 23.9686L121.986 25.8987C122.088 25.9824 122.202 26.0242 122.334 26.0182C122.466 26.0182 122.568 25.9585 122.64 25.8449C123.161 25.2115 123.508 24.5303 123.67 23.8133C123.832 23.0902 123.826 22.3552 123.658 21.6023C123.49 20.8494 123.167 20.1144 122.699 19.3974C122.232 18.6803 121.627 18.0051 120.89 17.3776C119.847 16.4932 118.799 15.8957 117.744 15.5969C116.69 15.2981 115.653 15.3041 114.647 15.6208C113.64 15.9375 112.699 16.565 111.824 17.5031C111.399 17.9752 110.968 18.4711 110.518 18.997C110.069 19.5228 109.655 20.0188 109.278 20.4849C108.469 21.5187 107.996 22.5465 107.84 23.5742L107.828 23.5802Z" fill="#00A256"/>
<path d="M119.571 38.1537C119.529 38.2971 119.553 38.4406 119.643 38.578L125.029 47.1648C125.119 47.3023 125.233 47.3859 125.383 47.4158C125.533 47.4457 125.664 47.4158 125.79 47.3441L127.66 46.1729C127.797 46.0892 127.887 45.9697 127.923 45.8263C127.959 45.6829 127.941 45.5395 127.851 45.402L124.304 39.7492L134.113 33.6303C134.251 33.5466 134.334 33.4331 134.364 33.2897C134.4 33.1462 134.37 33.0088 134.287 32.8714L132.741 30.4095C132.657 30.272 132.543 30.1884 132.399 30.1585C132.255 30.1226 132.117 30.1585 131.98 30.2362L119.816 37.8251C119.691 37.9028 119.613 38.0163 119.571 38.1597V38.1537Z" fill="#00A256"/>
<path d="M144.977 58.3098L142.191 48.4143C142.149 48.2589 142.065 48.1454 141.933 48.0737C141.807 48.002 141.663 47.99 141.507 48.0319L127.697 51.904C127.553 51.9458 127.445 52.0295 127.367 52.155C127.289 52.2864 127.271 52.4239 127.313 52.5792L130.147 62.642C130.189 62.7974 130.279 62.9109 130.417 62.9767C130.549 63.0484 130.686 63.0603 130.83 63.0185L132.825 62.4568C132.981 62.415 133.095 62.3253 133.167 62.1998C133.239 62.0744 133.251 61.9309 133.209 61.7756L131.256 54.844L134.21 54.0134L135.983 60.3056C136.025 60.461 136.115 60.5745 136.253 60.6402C136.385 60.7119 136.522 60.7239 136.666 60.6821L138.518 60.1622C138.673 60.1204 138.793 60.0307 138.871 59.9052C138.949 59.7738 138.967 59.6363 138.925 59.481L137.151 53.1888L140.022 52.388L141.927 59.1464C141.969 59.3017 142.059 59.4153 142.185 59.487C142.31 59.5587 142.454 59.5706 142.61 59.5288L144.605 58.9671C144.761 58.9253 144.875 58.8356 144.947 58.7101C145.019 58.5847 145.031 58.4412 144.989 58.2859L144.977 58.3098Z" fill="#00A256"/>
<path d="M73.4055 130.632L70.6313 130.423C70.4695 130.411 70.3317 130.453 70.2238 130.56C70.116 130.662 70.0501 130.787 70.0381 130.931L69.6606 135.89L63.2974 135.406C63.1356 135.395 62.9978 135.436 62.89 135.544C62.7761 135.645 62.7162 135.771 62.7042 135.914L62.5364 138.107C62.5245 138.269 62.5664 138.406 62.6623 138.526C62.7581 138.645 62.884 138.705 63.0457 138.717L69.403 139.201L69.1573 142.428L62.3567 141.908C62.1949 141.896 62.0571 141.938 61.9493 142.033C61.8354 142.129 61.7755 142.254 61.7635 142.416L61.5957 144.633C61.5838 144.794 61.6257 144.931 61.7216 145.039C61.8174 145.147 61.9433 145.212 62.105 145.224L72.2311 145.995C72.3929 146.007 72.5307 145.965 72.6385 145.87C72.7524 145.774 72.8123 145.649 72.8243 145.487L73.9148 131.218C73.9267 131.068 73.8848 130.943 73.7889 130.823C73.6931 130.704 73.5672 130.638 73.4055 130.626V130.632Z" fill="#00A256"/>
<path d="M54.7048 127.991C53.9438 127.22 52.9432 126.586 51.7029 126.084C50.4746 125.594 49.3242 125.361 48.2457 125.397C47.1672 125.433 46.2085 125.768 45.3637 126.401C44.5188 127.034 43.8358 127.996 43.3145 129.293L39.9531 137.623C39.8932 137.772 39.8932 137.916 39.9531 138.053C40.0191 138.191 40.1149 138.286 40.2527 138.34L42.9131 139.41C43.0509 139.464 43.1887 139.464 43.3265 139.41C43.4643 139.356 43.5662 139.254 43.6261 139.105L46.9814 130.793C47.341 129.909 47.8203 129.329 48.4314 129.06C49.0426 128.791 49.7257 128.809 50.4926 129.114C51.2715 129.425 51.7808 129.891 52.0265 130.5C52.2722 131.11 52.2182 131.863 51.8587 132.747L48.5033 141.059C48.4434 141.208 48.4434 141.352 48.5033 141.489C48.5693 141.627 48.6771 141.722 48.8269 141.782L51.4693 142.84C51.6191 142.899 51.7629 142.899 51.8947 142.84C52.0265 142.78 52.1283 142.678 52.1883 142.529L55.5556 134.199C56.0769 132.908 56.2567 131.737 56.0889 130.697C55.9211 129.658 55.4598 128.749 54.6988 127.979L54.7048 127.991Z" fill="#00A256"/>
<path d="M36.3095 117.21C36.1836 117.109 36.0458 117.073 35.896 117.097C35.7462 117.121 35.6264 117.187 35.5365 117.306L28.4723 126.275L25.3805 123.855C25.2547 123.754 25.1169 123.718 24.9671 123.742C24.8173 123.766 24.6975 123.831 24.6076 123.951L23.1456 125.803C23.0438 125.929 23.0078 126.066 23.0198 126.21C23.0378 126.353 23.1097 126.479 23.2355 126.574L32.5766 133.888C32.7024 133.99 32.8402 134.032 32.984 134.014C33.1278 133.996 33.2477 133.924 33.3495 133.799L34.8115 131.946C34.9014 131.833 34.9433 131.701 34.9314 131.546C34.9194 131.396 34.8475 131.271 34.7217 131.169L31.6299 128.749L38.6942 119.78C38.784 119.666 38.826 119.529 38.814 119.38C38.802 119.23 38.7301 119.105 38.6043 119.003L36.3155 117.21H36.3095Z" fill="#00A256"/>
<path d="M27.2087 112.047C27.6401 111.085 27.748 110.076 27.5323 109.012C27.3166 107.954 26.8252 106.873 26.0583 105.779C25.2973 104.698 24.4585 103.879 23.5358 103.323C22.613 102.768 21.6244 102.523 20.5759 102.594C19.5213 102.666 18.4248 103.102 17.2804 103.903L9.90458 109.054C9.77276 109.143 9.69487 109.269 9.67689 109.418C9.65892 109.568 9.68888 109.699 9.77276 109.825L11.4205 112.167C11.5044 112.287 11.6182 112.364 11.768 112.394C11.9178 112.424 12.0556 112.394 12.1874 112.304L19.5453 107.165C20.3302 106.622 21.0492 106.395 21.7083 106.502C22.3674 106.61 22.9306 106.998 23.404 107.667C23.8833 108.355 24.063 109.018 23.9312 109.663C23.7994 110.309 23.344 110.906 22.5591 111.456L15.2013 116.595C15.0695 116.684 14.9916 116.81 14.9736 116.959C14.9496 117.109 14.9856 117.252 15.0814 117.384L16.7172 119.708C16.8071 119.84 16.9269 119.917 17.0707 119.947C17.2145 119.971 17.3523 119.941 17.4841 119.846L24.86 114.695C26.0044 113.894 26.7893 113.016 27.2207 112.053L27.2087 112.047Z" fill="#00A256"/>
<path d="M19.4788 95.2569C19.5567 95.1255 19.5687 94.9821 19.5208 94.8327L18.6999 92.1138C18.652 91.9584 18.5621 91.8449 18.4243 91.7732C18.2865 91.7015 18.1487 91.6836 18.0049 91.7254L13.3133 93.1356L12.6662 90.9844L16.5908 87.184C16.6867 87.0944 16.7825 86.9629 16.8784 86.8016C16.9743 86.6342 16.9803 86.4191 16.9024 86.1502L16.0575 83.3477C16.0216 83.2342 15.9497 83.1445 15.8299 83.0848C15.71 83.0191 15.5962 83.0071 15.4823 83.037C15.4104 83.0609 15.3385 83.1027 15.2666 83.1684L10.9406 87.6202C10.3534 86.939 9.64039 86.4669 8.80155 86.1921C7.96869 85.9232 7.05196 85.9351 6.05134 86.2399C4.51745 86.7 3.48688 87.5784 2.9596 88.8691C2.43832 90.1598 2.45031 91.7194 3.00155 93.5479L4.73316 99.2785C4.78109 99.4338 4.86498 99.5474 4.99679 99.6131C5.12861 99.6848 5.26642 99.6908 5.42221 99.6489L19.1613 95.5199C19.2991 95.478 19.4069 95.3884 19.4848 95.2629L19.4788 95.2569ZM6.68047 95.1314L5.94948 92.7054C5.73977 92.0182 5.75774 91.4625 6.00341 91.0442C6.24307 90.6259 6.63853 90.3331 7.18977 90.1718C7.74101 90.0044 8.22634 90.0403 8.65175 90.2733C9.07717 90.5064 9.38874 90.9546 9.58646 91.6119L10.3175 94.0379L6.68646 95.1314H6.68047Z" fill="#00A256"/>
<path d="M15.2849 78.1425C15.3928 78.0409 15.4527 77.9095 15.4527 77.7481L15.4647 67.291C15.4647 67.1296 15.4107 66.9982 15.2969 66.8966C15.189 66.795 15.0572 66.7412 14.9134 66.7412H12.8403C12.6785 66.7412 12.5467 66.789 12.4448 66.8906C12.343 66.9922 12.289 67.1236 12.289 67.285V74.4855H9.21529V67.9483C9.22128 67.7869 9.16736 67.6555 9.0595 67.5539C8.95165 67.4523 8.81983 67.3985 8.67603 67.3985H6.75868C6.5969 67.3985 6.45909 67.4463 6.35124 67.5479C6.24339 67.6495 6.18347 67.7809 6.18347 67.9423V74.4795H3.19959V67.4583C3.20558 67.2969 3.15764 67.1655 3.04979 67.0639C2.94793 66.9623 2.81612 66.9085 2.65434 66.9085H0.563223C0.401446 66.9085 0.269628 66.9563 0.167769 67.0579C0.0659091 67.1595 0.0119835 67.291 0.0119835 67.4523L0 77.7302C0 77.8915 0.0539256 78.023 0.155785 78.1246C0.257645 78.2262 0.389463 78.2799 0.55124 78.2799L14.8955 78.2919C15.0452 78.2919 15.1711 78.2441 15.2849 78.1365V78.1425Z" fill="#00A256"/>
<path d="M17.466 42.7198C20.0065 42.9708 22.2774 41.1184 22.529 38.5848C22.7807 36.0512 20.9232 33.7864 18.3827 33.5355C15.8422 33.2845 13.5714 35.1369 13.3197 37.6705C13.0681 40.2042 14.9255 42.4689 17.466 42.7198Z" fill="#00A256"/>
<path d="M142.627 94.4733L129.278 89.2327C129.14 89.1789 129.002 89.1789 128.864 89.2327C128.726 89.2865 128.624 89.3881 128.565 89.5434L127.546 92.1249C127.486 92.2743 127.492 92.4177 127.552 92.5551C127.618 92.6925 127.72 92.7882 127.858 92.8419L132.501 94.6645L130.164 100.586C130.104 100.736 130.104 100.879 130.17 101.016C130.236 101.154 130.338 101.249 130.476 101.303L132.531 102.11C132.681 102.17 132.831 102.17 132.968 102.11C133.106 102.056 133.208 101.955 133.268 101.805L135.605 95.8835L138.625 97.0666L136.126 103.395C136.066 103.544 136.066 103.688 136.126 103.819C136.186 103.95 136.288 104.046 136.438 104.106L138.511 104.918C138.661 104.978 138.804 104.978 138.936 104.918C139.068 104.859 139.164 104.757 139.224 104.608L142.945 95.1843C143.005 95.0349 143.005 94.8915 142.945 94.7601C142.885 94.6286 142.783 94.533 142.633 94.4733H142.627Z" fill="#00A256"/>
<path d="M110.164 118.16C110.086 118.035 109.972 117.957 109.822 117.921C109.672 117.885 109.534 117.909 109.397 117.999L107.018 119.553C106.88 119.642 106.796 119.762 106.766 119.911C106.736 120.066 106.76 120.198 106.838 120.323L109.522 124.411L107.641 125.642L102.878 122.965C102.764 122.899 102.614 122.845 102.428 122.797C102.242 122.755 102.033 122.809 101.793 122.959L99.3365 124.56C99.2406 124.626 99.1747 124.721 99.1508 124.853C99.1208 124.984 99.1388 125.098 99.2047 125.199C99.2466 125.259 99.3065 125.319 99.3964 125.367L104.903 128.247C104.417 129.006 104.16 129.819 104.136 130.697C104.112 131.569 104.388 132.448 104.963 133.314C105.838 134.653 106.976 135.388 108.366 135.525C109.756 135.663 111.254 135.202 112.854 134.163L117.875 130.882C118.013 130.793 118.091 130.679 118.121 130.536C118.151 130.392 118.121 130.255 118.031 130.117L110.17 118.148L110.164 118.16ZM111.2 131.587C110.595 131.982 110.062 132.119 109.588 132.006C109.115 131.892 108.726 131.593 108.414 131.115C108.096 130.637 107.995 130.159 108.096 129.687C108.198 129.215 108.54 128.791 109.121 128.414L111.242 127.028L113.321 130.195L111.2 131.581V131.587Z" fill="#00A256"/>
<path d="M118.288 117.497C118.755 117.922 119.228 118.346 119.708 118.758C120.187 119.177 120.672 119.589 121.158 119.989C122.206 120.82 123.243 121.316 124.279 121.477C125.316 121.638 126.328 121.489 127.317 121.029C128.306 120.569 129.24 119.828 130.133 118.812C131.02 117.796 131.625 116.768 131.949 115.729C132.272 114.689 132.284 113.667 131.985 112.657C131.685 111.653 131.044 110.691 130.067 109.783C129.612 109.347 129.139 108.923 128.659 108.504C128.18 108.086 127.689 107.68 127.191 107.291C126.167 106.461 125.124 105.965 124.07 105.803C123.015 105.642 121.984 105.791 120.984 106.239C119.983 106.694 119.048 107.423 118.168 108.427C117.299 109.418 116.706 110.446 116.388 111.498C116.071 112.55 116.071 113.589 116.376 114.605C116.688 115.621 117.317 116.583 118.276 117.491L118.288 117.497ZM119.911 111.719C120.019 111.289 120.235 110.882 120.558 110.506C120.894 110.118 121.271 109.843 121.685 109.681C122.098 109.52 122.548 109.496 123.021 109.604C123.494 109.717 124.004 109.986 124.543 110.416C125.028 110.799 125.484 111.175 125.915 111.552C126.346 111.928 126.796 112.335 127.263 112.783C128.018 113.476 128.414 114.163 128.443 114.844C128.473 115.519 128.234 116.153 127.724 116.738C127.221 117.312 126.634 117.629 125.957 117.695C125.28 117.754 124.537 117.467 123.734 116.828C123.237 116.416 122.775 116.021 122.338 115.645C121.907 115.269 121.463 114.874 121.008 114.462C120.504 113.99 120.169 113.524 119.995 113.064C119.821 112.603 119.791 112.155 119.893 111.725L119.911 111.719Z" fill="#00A256"/>
</g>
<defs>
<clipPath id="clip0_850_121">
<rect width="145" height="146" fill="white"/>
</clipPath>
</defs>
</svg>
