<svg width="45" height="43" viewBox="0 0 45 43" fill="none" xmlns="http://www.w3.org/2000/svg">
<path d="M22.7637 6.47846C20.7886 1.64138 15.1275 0.129982 12.246 0C12.246 0 10.6708 5.39818 10.8066 12.5939C10.9425 19.7897 18.4077 21.3924 22.1233 21.2943L23.1287 10.4344C23.2522 9.10061 23.2748 7.73009 22.7637 6.47846Z" fill="#BCDFD8"/>
<path d="M38.9074 20.676C43.9344 18.4555 45.098 13.0881 45.0048 10.4078C45.0048 10.4078 39.0896 9.38391 31.3851 10.0906C23.6806 10.7973 22.5647 17.8436 22.9698 21.2785L34.6952 21.3335C36.1353 21.3403 37.6066 21.2506 38.9074 20.676Z" fill="#BCDFD8"/>
<path d="M22.333 36.5367C24.3188 41.362 29.9957 42.8702 32.8861 43C32.8861 43 34.4672 37.6069 34.3308 30.4179C34.1945 23.2289 26.7016 21.6277 22.9722 21.7257L21.964 32.5646C21.8394 33.9043 21.8164 35.2812 22.333 36.5367Z" fill="#BCDFD8"/>
<path d="M6.14016 22.3368C1.08177 24.5511 -0.0885722 29.9215 0.00507767 32.602C0.00507767 32.602 5.94225 33.6249 13.6753 32.9189C21.4084 32.2128 22.5285 25.1731 22.1218 21.7415L10.3352 21.6864C8.90149 21.6797 7.43728 21.769 6.14016 22.3368Z" fill="#BCDFD8"/>
</svg>
